<?xml version="1.0" encoding="utf-8"?>
<!-- Generator: Adobe Illustrator 24.2.0, SVG Export Plug-In . SVG Version: 6.00 Build 0)  -->
<svg version="1.1" id="Layer_1" xmlns="http://www.w3.org/2000/svg" xmlns:xlink="http://www.w3.org/1999/xlink" x="0px" y="0px"
	 viewBox="0 0 2178.7 2356.9" style="enable-background:new 0 0 2178.7 2356.9;" xml:space="preserve">
<style type="text/css">
	.st0{fill:#FFFFFF;}
	.st1{fill:none;stroke:#000000;stroke-width:68.5711;stroke-linejoin:round;stroke-miterlimit:10;}
	.st2{enable-background:new    ;}
	.st3{fill:#231F20;}
	.st4{fill:#F4281E;}
	.st5{fill:none;stroke:#F4281E;stroke-width:117.2611;}
</style>
<polygon class="st0" points="1656.5,1935.6 332,2052.9 332,138.6 1656.5,32.2 "/>
<g>
	<polygon class="st1" points="1656.5,1935.6 332,2052.9 332,138.6 1656.5,32.2 	"/>
</g>
<polygon class="st0" points="1793.6,2322.6 332,2134.7 332,164.2 1793.6,352.1 "/>
<g>
	<polygon class="st1" points="1793.6,2322.6 332,2134.7 332,164.2 1793.6,352.1 	"/>
	<g class="st2">
		<path class="st3" d="M1105.2,616.1l-20.7-3.5l-0.1,12.2c-0.1,15.2,4.6,18.7,20.3,22.8l-0.2,44.9l-102.3-17l0.2-44.2
			c17.2,0.2,21.9-5.9,22-27.2l0-1.5l-69-11.5l0.2-47.6c17.7-28.7,31.4-52.7,40.8-72.1c15.6-32.9,26.1-58.2,31.5-75.9l57.6,9.6
			l-0.8,160l20.7,3.5L1105.2,616.1z M1024.7,555l0.3-50.3l-22.1,46.6L1024.7,555z"/>
		<path class="st3" d="M1276.7,672.5c-13.4,33.2-37.1,46.8-71.1,41.1c-51.8-8.6-80.2-66.7-79.7-162.3c0.2-38.1,5.4-68.5,15.5-90.8
			c14.1-30.8,36.7-43.8,68.2-38.6c29.7,4.9,51.4,25,65.2,59.6c10.2,25.7,15.5,56.7,15.3,92.5
			C1289.9,617.9,1285.4,650.7,1276.7,672.5z M1221,507.7c0.1-23.2-4.1-35.8-12.3-37.1c-8.2-1.4-12.2,9.8-12.3,33l-0.6,118.8
			c-0.1,23.6,3.8,36.1,12,37.4c8.2,1.4,12.6-9.7,12.7-33.3L1221,507.7z"/>
		<path class="st3" d="M1457.5,674.7l-20.7-3.5l-0.1,12.2c-0.1,15.2,4.6,18.7,20.3,22.8l-0.2,44.9l-102.3-17l0.2-44.2
			c17.2,0.2,21.9-5.9,22-27.2l0-1.5l-69-11.5l0.2-47.6c17.7-28.7,31.4-52.7,40.8-72.1c15.6-32.9,26.1-58.2,31.5-75.9l57.6,9.6
			l-0.8,160l20.7,3.5L1457.5,674.7z M1376.9,613.7l0.3-50.3l-22.1,46.6L1376.9,613.7z"/>
	</g>
	<path class="st4" d="M432.1,274.3c0,0-15.2-2.6-15.3,13.1L416.6,564c0,0,0,15.7,15.2,18.2l439.8,73.9c0,0,15.2,2.6,15.3-13.1
		l0.2-276.6c0,0,0-15.7-15.2-18.2L432.1,274.3z"/>
	<path class="st0" d="M455,541.3l44.1,7.4l0.2-215.7l-44.1-7.4L455,541.3z M508.4,550.8l42.8,7.2v-48.6l-42.8-7.2L508.4,550.8z
		 M566.4,393l44,7.4v-48.6l-44-7.4V393z M566.3,560.5l44,7.4l0.1-158l-44-7.4L566.3,560.5z M627,570.7l44,7.4l0.2-216.2l-44-7.4
		L627,570.7z M680.8,412.2l44,7.4V371l-44-7.4V412.2z M680.7,498.7l44,7.4v-48.6l-44-7.4V498.7z M778.7,539.9l0.1-103.5
		c0-7.6,3.4-10.8,10.1-9.7v-45.3c-14-2.4-26,0.4-36,8.3c-11.2,8.7-16.7,21.8-16.8,39.4L736,532.6c0,17.5,5.5,32.5,16.7,45
		c10,11.3,22,18.1,36,20.4v-45.3C782.1,551.5,778.7,547.2,778.7,539.9 M851.1,551.6l0.1-103.3c0-17.5-5.6-32.5-16.9-44.9
		c-10.3-11.3-20.7-17.8-34.9-20.2v45.2c6.6,1.1,8.1,5.1,8.1,12.7l-0.1,103.3c0,7.4-2.1,10.1-8.1,10.4c0,0-0.1,44.6,0,44.6l1.6,0.2
		c12.7,1.4,23.8-1.4,33.3-8.6C845.5,582.2,851.1,569.1,851.1,551.6"/>
	<line class="st5" x1="42.7" y1="2310.9" x2="2140.3" y2="213.2"/>
</g>
</svg>
